<svg width="16" height="12" viewBox="0 0 16 12" fill="none" xmlns="http://www.w3.org/2000/svg">
<path d="M13.6 1.68383C13.6 0.757725 12.88 0 12 0H9.60001V1.68383H12V3.91491L9.21601 7.57725H6.40001V3.36766H3.2C1.432 3.36766 0 4.87469 0 6.73533V9.26108H1.6C1.6 10.6587 2.672 11.7868 4 11.7868C5.32801 11.7868 6.40001 10.6587 6.40001 9.26108H9.98401L13.6 4.50425V1.68383ZM4 10.103C3.56 10.103 3.2 9.72413 3.2 9.26108H4.80001C4.80001 9.72413 4.44001 10.103 4 10.103Z" fill="black"/>
<path d="M6.4 0.841892H2.4V2.52571H6.4V0.841892Z" fill="black"/>
<path d="M13.6 6.73526C12.272 6.73526 11.2 7.86343 11.2 9.26101C11.2 10.6586 12.272 11.7868 13.6 11.7868C14.928 11.7868 16 10.6586 16 9.26101C16 7.86343 14.928 6.73526 13.6 6.73526ZM13.6 10.1029C13.16 10.1029 12.8 9.72407 12.8 9.26101C12.8 8.79796 13.16 8.41909 13.6 8.41909C14.04 8.41909 14.4 8.79796 14.4 9.26101C14.4 9.72407 14.04 10.1029 13.6 10.1029Z" fill="black"/>
</svg>
