<svg width="20" height="22" viewBox="0 0 20 22" fill="none" xmlns="http://www.w3.org/2000/svg">
<path d="M11.9523 21C12.6396 21 13.1265 20.4081 13.4797 19.4916L19.7327 3.15752C19.9045 2.71838 20 2.32697 20 2.00239C20 1.38186 19.6181 1 18.9976 1C18.673 1 18.2816 1.09547 17.8425 1.2673L1.42243 7.55847C0.620525 7.86396 0 8.35084 0 9.04773C0 9.92601 0.668258 10.222 1.58473 10.4988L6.73986 12.0644C7.35084 12.2554 7.69451 12.2363 8.10501 11.8544L18.5776 2.06921C18.7017 1.95465 18.8449 1.97375 18.9403 2.05967C19.0358 2.15513 19.0453 2.29833 18.9308 2.42243L9.18377 12.9332C8.81146 13.3246 8.78282 13.6492 8.9642 14.2888L10.4821 19.3294C10.7685 20.2936 11.0644 21 11.9523 21Z" fill="#0A84FF"/>
</svg>
